<svg width="25" height="23" viewBox="0 0 25 23" fill="none" xmlns="http://www.w3.org/2000/svg">
<path d="M21.8807 2.7648C21.3123 2.20542 20.6368 1.76158 19.8931 1.45874C19.1493 1.15589 18.3519 1 17.5466 1C16.7413 1 15.9439 1.15589 15.2002 1.45874C14.4564 1.76158 13.7809 2.20542 13.2125 2.7648L12.34 3.63151L11.4675 2.7648C10.8991 2.20542 10.2236 1.76158 9.47984 1.45874C8.73609 1.15589 7.9387 1 7.13338 1C6.32807 1 5.53067 1.15589 4.78693 1.45874C4.04318 1.76158 3.36771 2.20542 2.79926 2.7648C0.397074 5.12046 0.24977 9.0984 3.27516 12.1207L12.34 21.01L21.4048 12.1207C24.4302 9.0984 24.2829 5.12046 21.8807 2.7648Z" stroke="#D0D0D0" stroke-width="2" stroke-linecap="round" stroke-linejoin="round"/>
</svg>
